<?xml version="1.0" encoding="UTF-8"?>
<svg id="OBJECTS" xmlns="http://www.w3.org/2000/svg" xmlns:xlink="http://www.w3.org/1999/xlink" viewBox="0 0 500 500">
  <defs>
    <style>
      .cls-1 {
        fill: url(#Degradado_sin_nombre_2-6);
      }

      .cls-1, .cls-2, .cls-3, .cls-4, .cls-5, .cls-6, .cls-7, .cls-8, .cls-9, .cls-10, .cls-11, .cls-12, .cls-13, .cls-14, .cls-15, .cls-16, .cls-17, .cls-18, .cls-19, .cls-20 {
        stroke-width: 0px;
      }

      .cls-21 {
        opacity: .7;
      }

      .cls-2 {
        fill: url(#Degradado_sin_nombre_2-4);
      }

      .cls-3 {
        fill: url(#Degradado_sin_nombre_4-8);
      }

      .cls-4 {
        fill: url(#Degradado_sin_nombre_4-4);
      }

      .cls-5 {
        fill: url(#Degradado_sin_nombre_2-7);
      }

      .cls-6 {
        fill: url(#Degradado_sin_nombre_4-2);
      }

      .cls-7 {
        fill: url(#Degradado_sin_nombre_2-2);
      }

      .cls-8 {
        fill: url(#Degradado_sin_nombre_2-5);
      }

      .cls-9 {
        fill: none;
      }

      .cls-10 {
        fill: url(#Degradado_sin_nombre_2-3);
      }

      .cls-11 {
        fill: url(#Degradado_sin_nombre_4);
      }

      .cls-12 {
        fill: #4883b2;
      }

      .cls-13 {
        fill: url(#Degradado_sin_nombre_4-3);
      }

      .cls-22 {
        clip-path: url(#clippath);
      }

      .cls-14 {
        fill: #57a0cf;
      }

      .cls-15 {
        fill: url(#Degradado_sin_nombre_4-6);
      }

      .cls-16 {
        fill: url(#Degradado_sin_nombre_4-9);
      }

      .cls-17 {
        fill: url(#Degradado_sin_nombre_2);
      }

      .cls-18 {
        fill: url(#Degradado_sin_nombre_4-5);
      }

      .cls-19 {
        fill: #81eced;
      }

      .cls-20 {
        fill: url(#Degradado_sin_nombre_4-7);
      }
    </style>
    <clipPath id="clippath">
      <rect class="cls-9" x="-12.32" y="576.69" width="1955.94" height="745"/>
    </clipPath>
    <linearGradient id="Degradado_sin_nombre_4" data-name="Degradado sin nombre 4" x1="396.61" y1="52.18" x2="396.61" y2="253.81" gradientTransform="translate(-44.1 -228.93) rotate(45)" gradientUnits="userSpaceOnUse">
      <stop offset="0" stop-color="#a3d6e8"/>
      <stop offset=".64" stop-color="#7ea1d2"/>
      <stop offset="1" stop-color="#6e8ac9"/>
    </linearGradient>
    <linearGradient id="Degradado_sin_nombre_4-2" data-name="Degradado sin nombre 4" x1="379.41" y1="102.06" x2="367.37" y2="233.11" xlink:href="#Degradado_sin_nombre_4"/>
    <linearGradient id="Degradado_sin_nombre_4-3" data-name="Degradado sin nombre 4" x1="385.61" y1="278.18" x2="385.61" y2="279.55" xlink:href="#Degradado_sin_nombre_4"/>
    <linearGradient id="Degradado_sin_nombre_2" data-name="Degradado sin nombre 2" x1="462.72" y1="174.72" x2="462.72" y2="261.69" gradientTransform="translate(-44.1 -228.93) rotate(45)" gradientUnits="userSpaceOnUse">
      <stop offset="0" stop-color="#072447"/>
      <stop offset=".39" stop-color="#15315e"/>
      <stop offset="1" stop-color="#314c8c"/>
    </linearGradient>
    <linearGradient id="Degradado_sin_nombre_4-4" data-name="Degradado sin nombre 4" x1="396.53" y1="52.18" x2="396.53" y2="253.81" xlink:href="#Degradado_sin_nombre_4"/>
    <linearGradient id="Degradado_sin_nombre_2-2" data-name="Degradado sin nombre 2" x1="591.51" y1="178.95" x2="384.43" y2="298.14" xlink:href="#Degradado_sin_nombre_2"/>
    <linearGradient id="Degradado_sin_nombre_4-5" data-name="Degradado sin nombre 4" x1="375.93" y1="88.73" x2="440.77" y2="179.96" xlink:href="#Degradado_sin_nombre_4"/>
    <linearGradient id="Degradado_sin_nombre_4-6" data-name="Degradado sin nombre 4" x1="521.34" y1="113.12" x2="586.17" y2="204.35" xlink:href="#Degradado_sin_nombre_4"/>
    <linearGradient id="Degradado_sin_nombre_2-3" data-name="Degradado sin nombre 2" x1="-369.15" y1="-842.53" x2="-369.15" y2="-640.9" gradientTransform="translate(652.38 -445.18) rotate(-135)" xlink:href="#Degradado_sin_nombre_2"/>
    <linearGradient id="Degradado_sin_nombre_2-4" data-name="Degradado sin nombre 2" x1="-386.35" y1="-792.65" x2="-398.39" y2="-661.59" gradientTransform="translate(652.38 -445.18) rotate(-135)" xlink:href="#Degradado_sin_nombre_2"/>
    <linearGradient id="Degradado_sin_nombre_4-7" data-name="Degradado sin nombre 4" x1="-370.78" y1="-631.34" x2="-370.78" y2="-629.97" gradientTransform="translate(652.38 -445.18) rotate(-135)" xlink:href="#Degradado_sin_nombre_4"/>
    <linearGradient id="Degradado_sin_nombre_4-8" data-name="Degradado sin nombre 4" x1="-303.04" y1="-719.98" x2="-303.04" y2="-633.02" gradientTransform="translate(652.38 -445.18) rotate(-135)" xlink:href="#Degradado_sin_nombre_4"/>
    <linearGradient id="Degradado_sin_nombre_2-5" data-name="Degradado sin nombre 2" x1="-369.23" y1="-842.52" x2="-369.23" y2="-640.89" gradientTransform="translate(652.38 -445.18) rotate(-135)" xlink:href="#Degradado_sin_nombre_2"/>
    <linearGradient id="Degradado_sin_nombre_4-9" data-name="Degradado sin nombre 4" x1="-174.25" y1="-715.75" x2="-381.33" y2="-596.56" gradientTransform="translate(652.38 -445.18) rotate(-135)" xlink:href="#Degradado_sin_nombre_4"/>
    <linearGradient id="Degradado_sin_nombre_2-6" data-name="Degradado sin nombre 2" x1="-389.82" y1="-805.97" x2="-324.99" y2="-714.74" gradientTransform="translate(652.38 -445.18) rotate(-135)" xlink:href="#Degradado_sin_nombre_2"/>
    <linearGradient id="Degradado_sin_nombre_2-7" data-name="Degradado sin nombre 2" x1="-240.6" y1="-773.14" x2="-175.77" y2="-681.91" gradientTransform="translate(652.38 -445.18) rotate(-135)" xlink:href="#Degradado_sin_nombre_2"/>
  </defs>
  <g class="cls-22">
    <g class="cls-21">
      <polygon class="cls-12" points="18.57 613.28 282.71 311.46 189.9 311.46 -74.23 613.28 18.57 613.28"/>
      <g>
        <path class="cls-19" d="M368.65,486.07h-23.26l8.09-9.24h23.26l-8.09,9.24ZM348.27,484.71h19.89l5.71-6.52h-19.89l-5.71,6.52Z"/>
        <path class="cls-19" d="M354.86,501.83h-23.26l8.09-9.24h23.26l-8.09,9.24ZM334.48,500.47h19.89l5.71-6.52h-19.89l-5.71,6.52Z"/>
      </g>
      <g>
        <path class="cls-19" d="M207.51,463.77h-89.53l12.17-13.91h89.53l-12.17,13.91ZM120.85,462.41h86.17l9.79-11.19h-86.17l-9.79,11.19Z"/>
        <path class="cls-19" d="M185.55,488.87h-89.53l12.17-13.91h89.53l-12.17,13.91ZM98.89,487.51h86.17l9.79-11.19h-86.17l-9.79,11.19Z"/>
        <path class="cls-19" d="M251.44,413.58h-89.53l12.17-13.91h89.53l-12.17,13.91ZM164.78,412.22h86.17l9.79-11.19h-86.17l-9.79,11.19Z"/>
        <path class="cls-19" d="M229.48,438.67h-89.53l12.17-13.91h89.53l-12.17,13.91ZM142.82,437.32h86.17l9.79-11.19h-86.17l-9.79,11.19Z"/>
      </g>
      <polygon class="cls-14" points="-114.08 667.88 109.79 412.07 75.58 412.07 -148.28 667.88 -114.08 667.88"/>
      <polygon class="cls-19" points="-133.23 934.69 -134.07 933.73 339.12 393.03 339.96 393.99 -133.23 934.69"/>
      <polygon class="cls-19" points="-55.86 496.29 -56.7 495.33 146.14 263.54 146.98 264.5 -55.86 496.29"/>
    </g>
  </g>
  <g>
    <g>
      <path class="cls-11" d="M149.09,188.46l-40.76,40.76c-13.73,13.73-35.97,13.73-49.69,0-5.34-5.34-8.61-11.98-9.78-18.9-1.86-10.87,1.4-22.41,9.78-30.79l40.76-40.76c12.19-12.19,31.12-13.54,44.82-4.06,1.7,1.18,3.34,2.53,4.87,4.06,6.86,6.86,10.28,15.86,10.28,24.85.01,9-3.42,17.98-10.28,24.85Z"/>
      <path class="cls-6" d="M48.85,210.32c-1.86-10.87,1.4-22.41,9.78-30.79l40.76-40.76c12.19-12.19,31.12-13.54,44.82-4.06-23.67,9.71-69.79,47.21-95.37,75.62Z"/>
      <path class="cls-13" d="M30.73,239.99l.96,2.19c-.52-.6-.84-1.34-.96-2.19Z"/>
      <path class="cls-17" d="M201.82,322.71c-6.86,6.86-15.85,10.29-24.85,10.31-9-.01-17.98-3.44-24.85-10.31l-93.49-93.49c-.73-.73-1.43-1.48-2.06-2.27-11.63-13.81-10.94-34.43,2.06-47.43,13.73-13.73,35.97-13.73,49.69,0l93.49,93.49c11.47,11.47,13.36,28.89,5.65,42.32-1.51,2.63-3.39,5.12-5.65,7.37Z"/>
      <path class="cls-4" d="M201.99,135.32c-6.84,6.84-15.82,10.27-24.78,10.27-3.84-.01-7.68-.63-11.34-1.89-4.92-1.68-9.54-4.48-13.45-8.4-13.69-13.69-13.69-35.88,0-49.56,6.84-6.84,15.82-10.27,24.78-10.27.45,0,.9.01,1.35.04,8.53.3,16.95,3.72,23.45,10.22,6.85,6.85,10.27,15.82,10.27,24.81s-3.43,17.94-10.27,24.78Z"/>
      <path class="cls-7" d="M201.82,322.71c-6.86,6.86-15.85,10.29-24.85,10.31-9-.01-17.98-3.44-24.85-10.31l-93.49-93.49c-.73-.73-1.43-1.48-2.06-2.27,48.88,30.6,114.63,75.99,150.89,88.38-1.51,2.63-3.39,5.12-5.65,7.37Z"/>
      <path class="cls-18" d="M165.87,143.71c-4.92-1.68-9.54-4.48-13.45-8.4-13.69-13.69-13.69-35.88,0-49.56,6.84-6.84,15.82-10.27,24.78-10.27.45,0,.9.01,1.35.04-12.25,18.22-14.98,41.78-12.68,68.19Z"/>
      <path class="cls-15" d="M251.44,263.77c-4.92-1.68-9.54-4.48-13.45-8.4-13.69-13.69-13.69-35.88,0-49.56,6.84-6.84,15.82-10.27,24.78-10.27.45,0,.9.01,1.35.04-12.25,18.22-14.98,41.78-12.68,68.19Z"/>
    </g>
    <path class="cls-10" d="M368.01,311.54l40.76-40.76c13.73-13.73,35.97-13.73,49.69,0,5.34,5.34,8.61,11.98,9.78,18.9,1.86,10.87-1.4,22.41-9.78,30.79l-40.76,40.76c-12.19,12.19-31.12,13.54-44.82,4.06-1.7-1.18-3.34-2.53-4.87-4.06-6.86-6.86-10.28-15.86-10.28-24.85-.01-9,3.42-17.98,10.28-24.85Z"/>
    <path class="cls-2" d="M468.25,289.68c1.86,10.87-1.4,22.41-9.78,30.79l-40.76,40.76c-12.19,12.19-31.12,13.54-44.82,4.06,23.67-9.71,69.79-47.2,95.37-75.61Z"/>
    <path class="cls-20" d="M469.27,263.86l-.96-2.19c.52.6.84,1.34.96,2.19Z"/>
    <path class="cls-3" d="M315.28,177.29c6.86-6.86,15.85-10.29,24.85-10.31,9,.01,17.98,3.44,24.85,10.31l93.49,93.49c.73.73,1.43,1.48,2.06,2.27,11.63,13.81,10.94,34.43-2.06,47.43-13.73,13.73-35.97,13.73-49.69,0l-93.49-93.49c-11.47-11.47-13.36-28.89-5.65-42.32,1.51-2.63,3.39-5.12,5.65-7.37Z"/>
    <path class="cls-8" d="M315.11,364.68c6.84-6.84,15.82-10.27,24.78-10.27,3.84.01,7.68.63,11.34,1.89,4.92,1.68,9.54,4.48,13.45,8.4,13.69,13.69,13.69,35.88,0,49.56-6.84,6.84-15.82,10.27-24.78,10.27-.45,0-.9-.01-1.35-.04-8.53-.3-16.95-3.72-23.45-10.22-6.85-6.85-10.27-15.82-10.27-24.81s3.43-17.94,10.27-24.78Z"/>
    <path class="cls-16" d="M315.28,177.29c6.86-6.86,15.85-10.29,24.85-10.31,9,.01,17.98,3.44,24.85,10.31l93.49,93.49c.73.73,1.43,1.48,2.06,2.27-48.88-30.6-114.63-75.99-150.89-88.38,1.51-2.63,3.39-5.12,5.65-7.37Z"/>
    <path class="cls-1" d="M351.24,356.29c4.92,1.68,9.54,4.48,13.45,8.4,13.69,13.69,13.69,35.88,0,49.56-6.84,6.84-15.82,10.27-24.78,10.27-.45,0-.9-.01-1.35-.04,12.25-18.22,14.98-41.78,12.68-68.19Z"/>
    <path class="cls-5" d="M268.93,227.56c4.92,1.68,9.54,4.48,13.45,8.4,13.69,13.69,13.69,35.88,0,49.56-6.84,6.84-15.82,10.27-24.78,10.27-.45,0-.9-.01-1.35-.04,12.25-18.22,14.98-41.78,12.68-68.19Z"/>
  </g>
</svg>